<svg width="195" height="50" viewBox="0 0 195 50" fill="none" xmlns="http://www.w3.org/2000/svg">
<path d="M67 40.832V33.132H69.9327C70.606 33.132 71.1576 33.2347 71.5876 33.44C72.0257 33.6453 72.3502 33.924 72.5611 34.276C72.7721 34.6207 72.8775 35.0057 72.8775 35.431C72.8775 35.9077 72.7356 36.3403 72.4516 36.729C72.1758 37.1177 71.7417 37.3963 71.1495 37.565L72.9627 40.832H71.4659L69.811 37.73H68.2899V40.832H67ZM68.2899 36.85H69.8597C70.4438 36.85 70.8697 36.7217 71.1374 36.465C71.4132 36.2083 71.5511 35.8747 71.5511 35.464C71.5511 35.0533 71.4173 34.727 71.1495 34.485C70.8818 34.2357 70.4479 34.111 69.8475 34.111H68.2899V36.85Z" fill="#0D1216"/>
<path d="M78.7852 40.832V33.132H84.2003V34.078H80.0751V36.476H83.8352V37.4H80.0751V39.886H84.2003V40.832H78.7852Z" fill="#0D1216"/>
<path d="M92.929 40.964C92.3043 40.964 91.7567 40.865 91.2862 40.667C90.8156 40.469 90.4466 40.1867 90.1788 39.82C89.9192 39.4533 89.7853 39.017 89.7773 38.511H91.1402C91.1482 38.9217 91.3064 39.27 91.6148 39.556C91.923 39.842 92.357 39.985 92.9168 39.985C93.4116 39.985 93.7969 39.8787 94.0728 39.666C94.3567 39.446 94.4987 39.1673 94.4987 38.83C94.4987 38.5587 94.4297 38.3387 94.2919 38.17C94.162 38.0013 93.9795 37.862 93.7443 37.752C93.5171 37.642 93.2534 37.543 92.9533 37.455C92.6531 37.367 92.3367 37.2717 92.0042 37.169C91.347 36.971 90.8521 36.7143 90.5196 36.399C90.195 36.0837 90.0328 35.6693 90.0328 35.156C90.0246 34.7233 90.1341 34.3457 90.3614 34.023C90.5966 33.7003 90.9211 33.451 91.3349 33.275C91.7567 33.0917 92.2475 33 92.8073 33C93.3589 33 93.8416 33.0917 94.2554 33.275C94.6772 33.4583 95.0057 33.715 95.241 34.045C95.4762 34.3677 95.5979 34.7453 95.6061 35.178H94.2432C94.2432 34.98 94.1863 34.793 94.0728 34.617C93.9592 34.4337 93.793 34.2833 93.5739 34.166C93.3549 34.0487 93.0872 33.99 92.7708 33.99C92.3651 33.9827 92.0285 34.0743 91.7608 34.265C91.5011 34.4557 91.3714 34.7197 91.3714 35.057C91.3714 35.3577 91.4687 35.5887 91.6634 35.75C91.8581 35.9113 92.1258 36.047 92.4666 36.157C92.8073 36.2597 93.1967 36.3807 93.6348 36.52C94.0566 36.6447 94.4338 36.795 94.7665 36.971C95.099 37.147 95.3627 37.378 95.5574 37.664C95.7602 37.95 95.8616 38.313 95.8616 38.753C95.8616 39.1417 95.7521 39.5047 95.5331 39.842C95.3141 40.172 94.9855 40.4433 94.5474 40.656C94.1093 40.8613 93.5698 40.964 92.929 40.964Z" fill="#0D1216"/>
<path d="M103.494 40.832V34.078H100.975V33.132H107.29V34.078H104.783V40.832H103.494Z" fill="#0D1216"/>
<path d="M111.404 40.832L114.544 33.132H115.955L119.07 40.832H117.708L116.977 38.951H113.497L112.767 40.832H111.404ZM113.862 38.027H116.612L115.237 34.518L113.862 38.027Z" fill="#0D1216"/>
<path d="M127.458 40.964C126.85 40.964 126.298 40.8577 125.803 40.645C125.317 40.425 124.927 40.0913 124.635 39.644C124.351 39.1967 124.209 38.6283 124.209 37.939V33.132H125.499V37.95C125.499 38.6247 125.677 39.1197 126.035 39.435C126.391 39.7503 126.874 39.908 127.483 39.908C128.082 39.908 128.561 39.7503 128.919 39.435C129.275 39.1197 129.454 38.6247 129.454 37.95V33.132H130.744V37.939C130.744 38.6283 130.593 39.1967 130.294 39.644C130.002 40.0913 129.603 40.425 129.101 40.645C128.606 40.8577 128.058 40.964 127.458 40.964Z" fill="#0D1216"/>
<path d="M136.779 40.832V33.132H139.712C140.386 33.132 140.938 33.2347 141.367 33.44C141.805 33.6453 142.13 33.924 142.34 34.276C142.552 34.6207 142.657 35.0057 142.657 35.431C142.657 35.9077 142.515 36.3403 142.231 36.729C141.955 37.1177 141.522 37.3963 140.929 37.565L142.742 40.832H141.245L139.59 37.73H138.069V40.832H136.779ZM138.069 36.85H139.639C140.223 36.85 140.649 36.7217 140.917 36.465C141.193 36.2083 141.33 35.8747 141.33 35.464C141.33 35.0533 141.196 34.727 140.929 34.485C140.661 34.2357 140.227 34.111 139.627 34.111H138.069V36.85Z" fill="#0D1216"/>
<path d="M148.016 40.832L151.156 33.132H152.568L155.683 40.832H154.32L153.59 38.951H150.109L149.379 40.832H148.016ZM150.475 38.027H153.225L151.85 34.518L150.475 38.027Z" fill="#0D1216"/>
<path d="M161.252 40.832V33.132H162.542L166.813 38.929V33.132H168.103V40.832H166.813L162.542 35.035V40.832H161.252Z" fill="#0D1216"/>
<path d="M176.206 40.832V34.078H173.688V33.132H180.004V34.078H177.497V40.832H176.206Z" fill="#0D1216"/>
<path fill-rule="evenodd" clip-rule="evenodd" d="M35.9673 42.597C32.8375 44.1297 29.2528 45 25.4433 45C13.224 45 3.31836 36.0457 3.31836 25C3.31836 13.9543 13.224 5 25.4433 5C28.8197 5 32.0196 5.68368 34.8825 6.90625C34.6986 7.11885 34.5246 7.34319 34.3618 7.57929C33.5964 8.68974 32.9938 10.0318 32.6008 11.4633C30.4337 10.5253 28.0064 10 25.4433 10C16.2788 10 8.84961 16.7157 8.84961 25C8.84961 33.2843 16.2788 40 25.4433 40C30.1908 40 34.4726 38.1978 37.4972 35.309C37.1653 36.4152 36.7151 37.6031 36.1046 38.9318C35.6498 39.809 35.5237 40.4488 35.5237 41.4602C35.5237 41.8663 35.6868 42.247 35.9673 42.597ZM32.0961 14.6134C31.9223 18.2765 33.2209 21.8663 36.6856 23.2555C37.7614 24.128 38.4284 25.2124 38.4284 26.6199C38.4284 26.9224 38.4284 27.2186 38.4275 27.5099C37.151 32.9324 31.8226 37 25.4433 37C18.1118 37 12.1683 31.6274 12.1683 25C12.1683 18.3726 18.1118 13 25.4433 13C27.8676 13 30.14 13.5874 32.0961 14.6134Z" fill="#94231B"/>
<path d="M46.1982 22.8781C51.7709 20.5576 51.5272 13.151 48.4657 8.53905C45.3562 3.85445 40.7041 3.78631 37.5495 8.53905C34.5044 13.126 34.2237 20.5491 39.8169 22.8781C40.8413 23.7408 41.6245 25.4349 41.6245 26.8266C41.6245 31.0162 41.9094 34.3087 39.4936 39.1394C39.0605 40.0068 38.8582 40.6631 38.8582 41.2062C38.8582 43.2981 40.7194 45 43.0075 45C45.2957 45 47.1568 43.2981 47.1568 41.2062C47.1568 40.6631 46.9546 40.0068 46.5215 39.1394C44.0722 34.2417 44.3907 30.7222 44.3907 26.8266C44.3907 25.4349 45.1739 23.7408 46.1982 22.8781Z" fill="#94231B"/>
<path d="M58.5605 17.4001C58.5605 16.3014 58.8058 15.3201 59.2965 14.4561C59.7978 13.5814 60.4752 12.9041 61.3285 12.4241C62.1925 11.9334 63.1578 11.6881 64.2245 11.6881C65.4725 11.6881 66.5658 12.0081 67.5045 12.6481C68.4432 13.2881 69.0992 14.1734 69.4725 15.3041H66.8965C66.6405 14.7708 66.2778 14.3708 65.8085 14.1041C65.3498 13.8374 64.8165 13.7041 64.2085 13.7041C63.5578 13.7041 62.9765 13.8588 62.4645 14.1681C61.9632 14.4668 61.5685 14.8934 61.2805 15.4481C61.0032 16.0028 60.8645 16.6534 60.8645 17.4001C60.8645 18.1361 61.0032 18.7868 61.2805 19.3521C61.5685 19.9068 61.9632 20.3388 62.4645 20.6481C62.9765 20.9468 63.5578 21.0961 64.2085 21.0961C64.8165 21.0961 65.3498 20.9628 65.8085 20.6961C66.2778 20.4188 66.6405 20.0134 66.8965 19.4801H69.4725C69.0992 20.6214 68.4432 21.5121 67.5045 22.1521C66.5765 22.7814 65.4832 23.0961 64.2245 23.0961C63.1578 23.0961 62.1925 22.8561 61.3285 22.3761C60.4752 21.8854 59.7978 21.2081 59.2965 20.3441C58.8058 19.4801 58.5605 18.4988 58.5605 17.4001ZM75.3218 23.1441C74.4684 23.1441 73.7004 22.9574 73.0178 22.5841C72.3351 22.2001 71.7964 21.6614 71.4018 20.9681C71.0178 20.2748 70.8258 19.4748 70.8258 18.5681C70.8258 17.6614 71.0231 16.8614 71.4178 16.1681C71.8231 15.4748 72.3724 14.9414 73.0658 14.5681C73.7591 14.1841 74.5324 13.9921 75.3858 13.9921C76.2391 13.9921 77.0124 14.1841 77.7058 14.5681C78.3991 14.9414 78.9431 15.4748 79.3378 16.1681C79.7431 16.8614 79.9458 17.6614 79.9458 18.5681C79.9458 19.4748 79.7378 20.2748 79.3217 20.9681C78.9164 21.6614 78.3618 22.2001 77.6578 22.5841C76.9644 22.9574 76.1858 23.1441 75.3218 23.1441ZM75.3218 21.1921C75.7271 21.1921 76.1058 21.0961 76.4578 20.9041C76.8204 20.7014 77.1084 20.4028 77.3218 20.0081C77.5351 19.6134 77.6418 19.1334 77.6418 18.5681C77.6418 17.7254 77.4178 17.0801 76.9698 16.6321C76.5324 16.1734 75.9938 15.9441 75.3538 15.9441C74.7138 15.9441 74.1751 16.1734 73.7378 16.6321C73.3111 17.0801 73.0978 17.7254 73.0978 18.5681C73.0978 19.4108 73.3058 20.0614 73.7218 20.5201C74.1484 20.9681 74.6818 21.1921 75.3218 21.1921ZM84.9809 23.1441C84.2555 23.1441 83.6049 23.0161 83.0289 22.7601C82.4529 22.4934 81.9942 22.1361 81.6529 21.6881C81.3222 21.2401 81.1409 20.7441 81.1089 20.2001H83.3649C83.4075 20.5414 83.5729 20.8241 83.8609 21.0481C84.1595 21.2721 84.5275 21.3841 84.9649 21.3841C85.3915 21.3841 85.7222 21.2988 85.9569 21.1281C86.2022 20.9574 86.3249 20.7388 86.3249 20.4721C86.3249 20.1841 86.1755 19.9708 85.8769 19.8321C85.5889 19.6828 85.1249 19.5228 84.4849 19.3521C83.8235 19.1921 83.2795 19.0268 82.8529 18.8561C82.4369 18.6854 82.0742 18.4241 81.7649 18.0721C81.4662 17.7201 81.3169 17.2454 81.3169 16.6481C81.3169 16.1574 81.4555 15.7094 81.7329 15.3041C82.0209 14.8988 82.4262 14.5788 82.9489 14.3441C83.4822 14.1094 84.1062 13.9921 84.8209 13.9921C85.8769 13.9921 86.7195 14.2588 87.3489 14.7921C87.9782 15.3148 88.3249 16.0241 88.3889 16.9201H86.2449C86.2129 16.5681 86.0635 16.2908 85.7969 16.0881C85.5409 15.8748 85.1942 15.7681 84.7569 15.7681C84.3515 15.7681 84.0369 15.8428 83.8129 15.9921C83.5995 16.1414 83.4929 16.3494 83.4929 16.6161C83.4929 16.9148 83.6422 17.1441 83.9409 17.3041C84.2395 17.4534 84.7035 17.6081 85.3329 17.7681C85.9729 17.9281 86.5009 18.0934 86.9169 18.2641C87.3329 18.4348 87.6902 18.7014 87.9889 19.0641C88.2982 19.4161 88.4582 19.8854 88.4689 20.4721C88.4689 20.9841 88.3249 21.4428 88.0369 21.8481C87.7595 22.2534 87.3542 22.5734 86.8209 22.8081C86.2982 23.0321 85.6849 23.1441 84.9809 23.1441ZM101.316 14.0081C102.404 14.0081 103.279 14.3441 103.94 15.0161C104.612 15.6774 104.948 16.6054 104.948 17.8001V23.0001H102.708V18.1041C102.708 17.4108 102.532 16.8828 102.18 16.5201C101.828 16.1468 101.348 15.9601 100.74 15.9601C100.132 15.9601 99.6463 16.1468 99.2836 16.5201C98.9316 16.8828 98.7556 17.4108 98.7556 18.1041V23.0001H96.5156V18.1041C96.5156 17.4108 96.3396 16.8828 95.9876 16.5201C95.6356 16.1468 95.1556 15.9601 94.5476 15.9601C93.929 15.9601 93.4383 16.1468 93.0756 16.5201C92.7236 16.8828 92.5476 17.4108 92.5476 18.1041V23.0001H90.3076V14.1361H92.5476V15.2081C92.8356 14.8348 93.2036 14.5414 93.6516 14.3281C94.1103 14.1148 94.6116 14.0081 95.1556 14.0081C95.849 14.0081 96.4676 14.1574 97.0116 14.4561C97.5556 14.7441 97.977 15.1601 98.2756 15.7041C98.5636 15.1921 98.9796 14.7814 99.5236 14.4721C100.079 14.1628 100.676 14.0081 101.316 14.0081ZM111.01 23.1441C110.156 23.1441 109.388 22.9574 108.706 22.5841C108.023 22.2001 107.484 21.6614 107.09 20.9681C106.706 20.2748 106.514 19.4748 106.514 18.5681C106.514 17.6614 106.711 16.8614 107.106 16.1681C107.511 15.4748 108.06 14.9414 108.754 14.5681C109.447 14.1841 110.22 13.9921 111.074 13.9921C111.927 13.9921 112.7 14.1841 113.394 14.5681C114.087 14.9414 114.631 15.4748 115.026 16.1681C115.431 16.8614 115.634 17.6614 115.634 18.5681C115.634 19.4748 115.426 20.2748 115.01 20.9681C114.604 21.6614 114.05 22.2001 113.346 22.5841C112.652 22.9574 111.874 23.1441 111.01 23.1441ZM111.01 21.1921C111.415 21.1921 111.794 21.0961 112.146 20.9041C112.508 20.7014 112.796 20.4028 113.01 20.0081C113.223 19.6134 113.33 19.1334 113.33 18.5681C113.33 17.7254 113.106 17.0801 112.658 16.6321C112.22 16.1734 111.682 15.9441 111.042 15.9441C110.402 15.9441 109.863 16.1734 109.426 16.6321C108.999 17.0801 108.786 17.7254 108.786 18.5681C108.786 19.4108 108.994 20.0614 109.41 20.5201C109.836 20.9681 110.37 21.1921 111.01 21.1921ZM120.669 23.1441C119.944 23.1441 119.293 23.0161 118.717 22.7601C118.141 22.4934 117.682 22.1361 117.341 21.6881C117.01 21.2401 116.829 20.7441 116.797 20.2001H119.053C119.096 20.5414 119.261 20.8241 119.549 21.0481C119.848 21.2721 120.216 21.3841 120.653 21.3841C121.08 21.3841 121.41 21.2988 121.645 21.1281C121.89 20.9574 122.013 20.7388 122.013 20.4721C122.013 20.1841 121.864 19.9708 121.565 19.8321C121.277 19.6828 120.813 19.5228 120.173 19.3521C119.512 19.1921 118.968 19.0268 118.541 18.8561C118.125 18.6854 117.762 18.4241 117.453 18.0721C117.154 17.7201 117.005 17.2454 117.005 16.6481C117.005 16.1574 117.144 15.7094 117.421 15.3041C117.709 14.8988 118.114 14.5788 118.637 14.3441C119.17 14.1094 119.794 13.9921 120.509 13.9921C121.565 13.9921 122.408 14.2588 123.037 14.7921C123.666 15.3148 124.013 16.0241 124.077 16.9201H121.933C121.901 16.5681 121.752 16.2908 121.485 16.0881C121.229 15.8748 120.882 15.7681 120.445 15.7681C120.04 15.7681 119.725 15.8428 119.501 15.9921C119.288 16.1414 119.181 16.3494 119.181 16.6161C119.181 16.9148 119.33 17.1441 119.629 17.3041C119.928 17.4534 120.392 17.6081 121.021 17.7681C121.661 17.9281 122.189 18.0934 122.605 18.2641C123.021 18.4348 123.378 18.7014 123.677 19.0641C123.986 19.4161 124.146 19.8854 124.157 20.4721C124.157 20.9841 124.013 21.4428 123.725 21.8481C123.448 22.2534 123.042 22.5734 122.509 22.8081C121.986 23.0321 121.373 23.1441 120.669 23.1441ZM129.264 17.4001C129.264 16.3014 129.509 15.3201 130 14.4561C130.501 13.5814 131.179 12.9041 132.032 12.4241C132.896 11.9334 133.861 11.6881 134.928 11.6881C136.176 11.6881 137.269 12.0081 138.208 12.6481C139.147 13.2881 139.803 14.1734 140.176 15.3041H137.6C137.344 14.7708 136.981 14.3708 136.512 14.1041C136.053 13.8374 135.52 13.7041 134.912 13.7041C134.261 13.7041 133.68 13.8588 133.168 14.1681C132.667 14.4668 132.272 14.8934 131.984 15.4481C131.707 16.0028 131.568 16.6534 131.568 17.4001C131.568 18.1361 131.707 18.7868 131.984 19.3521C132.272 19.9068 132.667 20.3388 133.168 20.6481C133.68 20.9468 134.261 21.0961 134.912 21.0961C135.52 21.0961 136.053 20.9628 136.512 20.6961C136.981 20.4188 137.344 20.0134 137.6 19.4801H140.176C139.803 20.6214 139.147 21.5121 138.208 22.1521C137.28 22.7814 136.187 23.0961 134.928 23.0961C133.861 23.0961 132.896 22.8561 132.032 22.3761C131.179 21.8854 130.501 21.2081 130 20.3441C129.509 19.4801 129.264 18.4988 129.264 17.4001ZM150.457 14.1361V23.0001H148.201V21.8801C147.913 22.2641 147.535 22.5681 147.065 22.7921C146.607 23.0054 146.105 23.1121 145.561 23.1121C144.868 23.1121 144.255 22.9681 143.721 22.6801C143.188 22.3814 142.767 21.9494 142.457 21.3841C142.159 20.8081 142.009 20.1254 142.009 19.3361V14.1361H144.249V19.0161C144.249 19.7201 144.425 20.2641 144.777 20.6481C145.129 21.0214 145.609 21.2081 146.217 21.2081C146.836 21.2081 147.321 21.0214 147.673 20.6481C148.025 20.2641 148.201 19.7201 148.201 19.0161V14.1361H150.457ZM153.804 13.0801C153.409 13.0801 153.078 12.9574 152.812 12.7121C152.556 12.4561 152.428 12.1414 152.428 11.7681C152.428 11.3948 152.556 11.0854 152.812 10.8401C153.078 10.5841 153.409 10.4561 153.804 10.4561C154.198 10.4561 154.524 10.5841 154.78 10.8401C155.046 11.0854 155.18 11.3948 155.18 11.7681C155.18 12.1414 155.046 12.4561 154.78 12.7121C154.524 12.9574 154.198 13.0801 153.804 13.0801ZM154.908 14.1361V23.0001H152.668V14.1361H154.908ZM160.513 23.1441C159.787 23.1441 159.137 23.0161 158.561 22.7601C157.985 22.4934 157.526 22.1361 157.185 21.6881C156.854 21.2401 156.673 20.7441 156.641 20.2001H158.897C158.939 20.5414 159.105 20.8241 159.393 21.0481C159.691 21.2721 160.059 21.3841 160.497 21.3841C160.923 21.3841 161.254 21.2988 161.489 21.1281C161.734 20.9574 161.857 20.7388 161.857 20.4721C161.857 20.1841 161.707 19.9708 161.409 19.8321C161.121 19.6828 160.657 19.5228 160.017 19.3521C159.355 19.1921 158.811 19.0268 158.385 18.8561C157.969 18.6854 157.606 18.4241 157.297 18.0721C156.998 17.7201 156.849 17.2454 156.849 16.6481C156.849 16.1574 156.987 15.7094 157.265 15.3041C157.553 14.8988 157.958 14.5788 158.481 14.3441C159.014 14.1094 159.638 13.9921 160.353 13.9921C161.409 13.9921 162.251 14.2588 162.881 14.7921C163.51 15.3148 163.857 16.0241 163.921 16.9201H161.777C161.745 16.5681 161.595 16.2908 161.329 16.0881C161.073 15.8748 160.726 15.7681 160.289 15.7681C159.883 15.7681 159.569 15.8428 159.345 15.9921C159.131 16.1414 159.025 16.3494 159.025 16.6161C159.025 16.9148 159.174 17.1441 159.473 17.3041C159.771 17.4534 160.235 17.6081 160.865 17.7681C161.505 17.9281 162.033 18.0934 162.449 18.2641C162.865 18.4348 163.222 18.7014 163.521 19.0641C163.83 19.4161 163.99 19.8854 164.001 20.4721C164.001 20.9841 163.857 21.4428 163.569 21.8481C163.291 22.2534 162.886 22.5734 162.353 22.8081C161.83 23.0321 161.217 23.1441 160.513 23.1441ZM166.975 13.0801C166.581 13.0801 166.25 12.9574 165.983 12.7121C165.727 12.4561 165.599 12.1414 165.599 11.7681C165.599 11.3948 165.727 11.0854 165.983 10.8401C166.25 10.5841 166.581 10.4561 166.975 10.4561C167.37 10.4561 167.695 10.5841 167.951 10.8401C168.218 11.0854 168.351 11.3948 168.351 11.7681C168.351 12.1414 168.218 12.4561 167.951 12.7121C167.695 12.9574 167.37 13.0801 166.975 13.0801ZM168.079 14.1361V23.0001H165.839V14.1361H168.079ZM175.205 14.0081C176.261 14.0081 177.114 14.3441 177.765 15.0161C178.415 15.6774 178.741 16.6054 178.741 17.8001V23.0001H176.501V18.1041C176.501 17.4001 176.325 16.8614 175.973 16.4881C175.621 16.1041 175.141 15.9121 174.533 15.9121C173.914 15.9121 173.423 16.1041 173.061 16.4881C172.709 16.8614 172.533 17.4001 172.533 18.1041V23.0001H170.293V14.1361H172.533V15.2401C172.831 14.8561 173.21 14.5574 173.669 14.3441C174.138 14.1201 174.65 14.0081 175.205 14.0081ZM189.111 18.3761C189.111 18.6961 189.089 18.9841 189.047 19.2401H182.567C182.62 19.8801 182.844 20.3814 183.239 20.7441C183.633 21.1068 184.119 21.2881 184.695 21.2881C185.527 21.2881 186.119 20.9308 186.471 20.2161H188.887C188.631 21.0694 188.14 21.7734 187.415 22.3281C186.689 22.8721 185.799 23.1441 184.743 23.1441C183.889 23.1441 183.121 22.9574 182.439 22.5841C181.767 22.2001 181.239 21.6614 180.855 20.9681C180.481 20.2748 180.295 19.4748 180.295 18.5681C180.295 17.6508 180.481 16.8454 180.855 16.1521C181.228 15.4588 181.751 14.9254 182.423 14.5521C183.095 14.1788 183.868 13.9921 184.743 13.9921C185.585 13.9921 186.337 14.1734 186.999 14.5361C187.671 14.8988 188.188 15.4161 188.551 16.0881C188.924 16.7494 189.111 17.5121 189.111 18.3761ZM186.791 17.7361C186.78 17.1601 186.572 16.7014 186.167 16.3601C185.761 16.0081 185.265 15.8321 184.679 15.8321C184.124 15.8321 183.655 16.0028 183.271 16.3441C182.897 16.6748 182.668 17.1388 182.583 17.7361H186.791Z" fill="#94231B"/>
</svg>
