<svg width="195" height="50" viewBox="0 0 195 50" fill="none" xmlns="http://www.w3.org/2000/svg">
<path d="M59.7373 44.46V36.76H62.67C63.3433 36.76 63.8949 36.8627 64.3249 37.068C64.763 37.2733 65.0875 37.552 65.2984 37.904C65.5094 38.2487 65.6148 38.6337 65.6148 39.059C65.6148 39.5357 65.4729 39.9683 65.1889 40.357C64.9131 40.7457 64.479 41.0243 63.8868 41.193L65.7 44.46H64.2032L62.5483 41.358H61.0272V44.46H59.7373ZM61.0272 40.478H62.597C63.1811 40.478 63.607 40.3497 63.8747 40.093C64.1505 39.8363 64.2884 39.5027 64.2884 39.092C64.2884 38.6813 64.1546 38.355 63.8868 38.113C63.6191 37.8637 63.1852 37.739 62.5848 37.739H61.0272V40.478Z" fill="#E2893C"/>
<path d="M71.5215 44.46V36.76H76.9366V37.706H72.8114V40.104H76.5715V41.028H72.8114V43.514H76.9366V44.46H71.5215Z" fill="#E2893C"/>
<path d="M85.6654 44.5921C85.0407 44.5921 84.4931 44.4931 84.0226 44.2951C83.552 44.0971 83.183 43.8148 82.9152 43.4481C82.6556 43.0814 82.5217 42.6451 82.5137 42.1391H83.8766C83.8846 42.5498 84.0428 42.8981 84.3512 43.1841C84.6594 43.4701 85.0934 43.6131 85.6532 43.6131C86.148 43.6131 86.5333 43.5068 86.8092 43.2941C87.0931 43.0741 87.2351 42.7954 87.2351 42.4581C87.2351 42.1868 87.1661 41.9668 87.0283 41.7981C86.8984 41.6294 86.7159 41.4901 86.4807 41.3801C86.2535 41.2701 85.9898 41.1711 85.6897 41.0831C85.3895 40.9951 85.0731 40.8998 84.7406 40.7971C84.0834 40.5991 83.5885 40.3424 83.256 40.0271C82.9314 39.7118 82.7692 39.2974 82.7692 38.7841C82.761 38.3514 82.8705 37.9738 83.0978 37.6511C83.333 37.3284 83.6575 37.0791 84.0713 36.9031C84.4931 36.7198 84.9839 36.6281 85.5437 36.6281C86.0953 36.6281 86.578 36.7198 86.9918 36.9031C87.4136 37.0864 87.7421 37.3431 87.9774 37.6731C88.2126 37.9958 88.3343 38.3734 88.3425 38.8061H86.9796C86.9796 38.6081 86.9227 38.4211 86.8092 38.2451C86.6956 38.0618 86.5294 37.9114 86.3103 37.7941C86.0913 37.6768 85.8236 37.6181 85.5072 37.6181C85.1015 37.6108 84.7649 37.7024 84.4972 37.8931C84.2375 38.0838 84.1078 38.3478 84.1078 38.6851C84.1078 38.9858 84.2051 39.2168 84.3998 39.3781C84.5945 39.5394 84.8622 39.6751 85.203 39.7851C85.5437 39.8878 85.9331 40.0088 86.3712 40.1481C86.793 40.2728 87.1702 40.4231 87.5029 40.5991C87.8354 40.7751 88.0991 41.0061 88.2938 41.2921C88.4966 41.5781 88.598 41.9411 88.598 42.3811C88.598 42.7698 88.4885 43.1328 88.2695 43.4701C88.0505 43.8001 87.7219 44.0714 87.2838 44.2841C86.8457 44.4894 86.3062 44.5921 85.6654 44.5921Z" fill="#E2893C"/>
<path d="M96.2304 44.46V37.706H93.7114V36.76H100.027V37.706H97.5202V44.46H96.2304Z" fill="#E2893C"/>
<path d="M104.14 44.46L107.28 36.76H108.691L111.806 44.46H110.444L109.713 42.579H106.233L105.503 44.46H104.14ZM106.598 41.655H109.348L107.973 38.146L106.598 41.655Z" fill="#E2893C"/>
<path d="M120.195 44.592C119.587 44.592 119.035 44.4857 118.54 44.273C118.054 44.053 117.664 43.7193 117.372 43.272C117.088 42.8247 116.946 42.2563 116.946 41.567V36.76H118.236V41.578C118.236 42.2527 118.414 42.7477 118.772 43.063C119.128 43.3783 119.611 43.536 120.22 43.536C120.819 43.536 121.298 43.3783 121.656 43.063C122.012 42.7477 122.191 42.2527 122.191 41.578V36.76H123.481V41.567C123.481 42.2563 123.33 42.8247 123.031 43.272C122.739 43.7193 122.34 44.053 121.838 44.273C121.343 44.4857 120.795 44.592 120.195 44.592Z" fill="#E2893C"/>
<path d="M129.515 44.46V36.76H132.448C133.122 36.76 133.674 36.8627 134.103 37.068C134.541 37.2733 134.866 37.552 135.076 37.904C135.288 38.2487 135.393 38.6337 135.393 39.059C135.393 39.5357 135.251 39.9683 134.967 40.357C134.691 40.7457 134.258 41.0243 133.665 41.193L135.478 44.46H133.981L132.326 41.358H130.805V44.46H129.515ZM130.805 40.478H132.375C132.959 40.478 133.385 40.3497 133.653 40.093C133.929 39.8363 134.066 39.5027 134.066 39.092C134.066 38.6813 133.932 38.355 133.665 38.113C133.397 37.8637 132.963 37.739 132.363 37.739H130.805V40.478Z" fill="#E2893C"/>
<path d="M140.752 44.46L143.892 36.76H145.304L148.419 44.46H147.056L146.326 42.579H142.845L142.115 44.46H140.752ZM143.211 41.655H145.961L144.586 38.146L143.211 41.655Z" fill="#E2893C"/>
<path d="M153.988 44.46V36.76H155.278L159.549 42.557V36.76H160.839V44.46H159.549L155.278 38.663V44.46H153.988Z" fill="#E2893C"/>
<path d="M168.943 44.46V37.706H166.424V36.76H172.74V37.706H170.233V44.46H168.943Z" fill="#E2893C"/>
<path fill-rule="evenodd" clip-rule="evenodd" d="M35.9678 42.597C32.838 44.1297 29.2533 45 25.4438 45C13.2245 45 3.31885 36.0457 3.31885 25C3.31885 13.9543 13.2245 5 25.4438 5C28.8202 5 32.0201 5.68368 34.883 6.90625C34.6991 7.11885 34.5251 7.34319 34.3623 7.57929C33.5969 8.68974 32.9943 10.0318 32.6013 11.4633C30.4342 10.5253 28.0069 10 25.4438 10C16.2793 10 8.8501 16.7157 8.8501 25C8.8501 33.2843 16.2793 40 25.4438 40C30.1913 40 34.4731 38.1978 37.4977 35.309C37.1658 36.4152 36.7156 37.6031 36.1051 38.9318C35.6503 39.809 35.5242 40.4488 35.5242 41.4602C35.5242 41.8663 35.6873 42.247 35.9678 42.597ZM32.0966 14.6134C31.9228 18.2765 33.2214 21.8663 36.6861 23.2555C37.7619 24.128 38.4289 25.2124 38.4289 26.6199C38.4289 26.9224 38.4289 27.2186 38.428 27.5099C37.1515 32.9324 31.8231 37 25.4438 37C18.1123 37 12.1688 31.6274 12.1688 25C12.1688 18.3726 18.1123 13 25.4438 13C27.8681 13 30.1405 13.5874 32.0966 14.6134Z" fill="#E2893C"/>
<path d="M46.1977 22.8781C51.7704 20.5576 51.5267 13.151 48.4652 8.53905C45.3557 3.85445 40.7036 3.78631 37.549 8.53905C34.5039 13.126 34.2232 20.5491 39.8164 22.8781C40.8408 23.7408 41.624 25.4349 41.624 26.8266C41.624 31.0162 41.9089 34.3087 39.4931 39.1394C39.06 40.0068 38.8577 40.6631 38.8577 41.2062C38.8577 43.2981 40.7189 45 43.007 45C45.2952 45 47.1563 43.2981 47.1563 41.2062C47.1563 40.6631 46.9541 40.0068 46.521 39.1394C44.0717 34.2417 44.3902 30.7222 44.3902 26.8266C44.3902 25.4349 45.1734 23.7408 46.1977 22.8781Z" fill="#E2893C"/>
<path d="M58.56 17.4C58.56 16.3013 58.8053 15.32 59.296 14.456C59.7973 13.5813 60.4747 12.904 61.328 12.424C62.192 11.9333 63.1573 11.688 64.224 11.688C65.472 11.688 66.5653 12.008 67.504 12.648C68.4427 13.288 69.0987 14.1733 69.472 15.304H66.896C66.64 14.7707 66.2773 14.3707 65.808 14.104C65.3493 13.8373 64.816 13.704 64.208 13.704C63.5573 13.704 62.976 13.8587 62.464 14.168C61.9627 14.4667 61.568 14.8933 61.28 15.448C61.0027 16.0027 60.864 16.6533 60.864 17.4C60.864 18.136 61.0027 18.7867 61.28 19.352C61.568 19.9067 61.9627 20.3387 62.464 20.648C62.976 20.9467 63.5573 21.096 64.208 21.096C64.816 21.096 65.3493 20.9627 65.808 20.696C66.2773 20.4187 66.64 20.0133 66.896 19.48H69.472C69.0987 20.6213 68.4427 21.512 67.504 22.152C66.576 22.7813 65.4827 23.096 64.224 23.096C63.1573 23.096 62.192 22.856 61.328 22.376C60.4747 21.8853 59.7973 21.208 59.296 20.344C58.8053 19.48 58.56 18.4987 58.56 17.4ZM75.3213 23.144C74.4679 23.144 73.6999 22.9573 73.0173 22.584C72.3346 22.2 71.7959 21.6613 71.4013 20.968C71.0173 20.2747 70.8253 19.4747 70.8253 18.568C70.8253 17.6613 71.0226 16.8613 71.4173 16.168C71.8226 15.4747 72.3719 14.9413 73.0653 14.568C73.7586 14.184 74.5319 13.992 75.3853 13.992C76.2386 13.992 77.0119 14.184 77.7053 14.568C78.3986 14.9413 78.9426 15.4747 79.3373 16.168C79.7426 16.8613 79.9453 17.6613 79.9453 18.568C79.9453 19.4747 79.7373 20.2747 79.3212 20.968C78.9159 21.6613 78.3613 22.2 77.6573 22.584C76.9639 22.9573 76.1853 23.144 75.3213 23.144ZM75.3213 21.192C75.7266 21.192 76.1053 21.096 76.4573 20.904C76.8199 20.7013 77.1079 20.4027 77.3213 20.008C77.5346 19.6133 77.6413 19.1333 77.6413 18.568C77.6413 17.7253 77.4173 17.08 76.9693 16.632C76.5319 16.1733 75.9933 15.944 75.3533 15.944C74.7133 15.944 74.1746 16.1733 73.7373 16.632C73.3106 17.08 73.0973 17.7253 73.0973 18.568C73.0973 19.4107 73.3053 20.0613 73.7213 20.52C74.1479 20.968 74.6813 21.192 75.3213 21.192ZM84.9804 23.144C84.255 23.144 83.6044 23.016 83.0284 22.76C82.4524 22.4933 81.9937 22.136 81.6524 21.688C81.3217 21.24 81.1404 20.744 81.1084 20.2H83.3644C83.407 20.5413 83.5724 20.824 83.8604 21.048C84.159 21.272 84.527 21.384 84.9644 21.384C85.391 21.384 85.7217 21.2987 85.9564 21.128C86.2017 20.9573 86.3244 20.7387 86.3244 20.472C86.3244 20.184 86.175 19.9707 85.8764 19.832C85.5884 19.6827 85.1244 19.5227 84.4844 19.352C83.823 19.192 83.279 19.0267 82.8524 18.856C82.4364 18.6853 82.0737 18.424 81.7644 18.072C81.4657 17.72 81.3164 17.2453 81.3164 16.648C81.3164 16.1573 81.455 15.7093 81.7324 15.304C82.0204 14.8987 82.4257 14.5787 82.9484 14.344C83.4817 14.1093 84.1057 13.992 84.8204 13.992C85.8764 13.992 86.719 14.2587 87.3484 14.792C87.9777 15.3147 88.3244 16.024 88.3884 16.92H86.2444C86.2124 16.568 86.063 16.2907 85.7964 16.088C85.5404 15.8747 85.1937 15.768 84.7564 15.768C84.351 15.768 84.0364 15.8427 83.8124 15.992C83.599 16.1413 83.4924 16.3493 83.4924 16.616C83.4924 16.9147 83.6417 17.144 83.9404 17.304C84.239 17.4533 84.703 17.608 85.3324 17.768C85.9724 17.928 86.5004 18.0933 86.9164 18.264C87.3324 18.4347 87.6897 18.7013 87.9884 19.064C88.2977 19.416 88.4577 19.8853 88.4684 20.472C88.4684 20.984 88.3244 21.4427 88.0364 21.848C87.759 22.2533 87.3537 22.5733 86.8204 22.808C86.2977 23.032 85.6844 23.144 84.9804 23.144ZM101.315 14.008C102.403 14.008 103.278 14.344 103.939 15.016C104.611 15.6773 104.947 16.6053 104.947 17.8V23H102.707V18.104C102.707 17.4107 102.531 16.8827 102.179 16.52C101.827 16.1467 101.347 15.96 100.739 15.96C100.131 15.96 99.6458 16.1467 99.2831 16.52C98.9311 16.8827 98.7551 17.4107 98.7551 18.104V23H96.5151V18.104C96.5151 17.4107 96.3391 16.8827 95.9871 16.52C95.6351 16.1467 95.1551 15.96 94.5471 15.96C93.9285 15.96 93.4378 16.1467 93.0751 16.52C92.7231 16.8827 92.5471 17.4107 92.5471 18.104V23H90.3071V14.136H92.5471V15.208C92.8351 14.8347 93.2031 14.5413 93.6511 14.328C94.1098 14.1147 94.6111 14.008 95.1551 14.008C95.8485 14.008 96.4671 14.1573 97.0111 14.456C97.5551 14.744 97.9765 15.16 98.2751 15.704C98.5631 15.192 98.9791 14.7813 99.5231 14.472C100.078 14.1627 100.675 14.008 101.315 14.008ZM111.009 23.144C110.155 23.144 109.387 22.9573 108.705 22.584C108.022 22.2 107.483 21.6613 107.089 20.968C106.705 20.2747 106.513 19.4747 106.513 18.568C106.513 17.6613 106.71 16.8613 107.105 16.168C107.51 15.4747 108.059 14.9413 108.753 14.568C109.446 14.184 110.219 13.992 111.073 13.992C111.926 13.992 112.699 14.184 113.393 14.568C114.086 14.9413 114.63 15.4747 115.025 16.168C115.43 16.8613 115.633 17.6613 115.633 18.568C115.633 19.4747 115.425 20.2747 115.009 20.968C114.603 21.6613 114.049 22.2 113.345 22.584C112.651 22.9573 111.873 23.144 111.009 23.144ZM111.009 21.192C111.414 21.192 111.793 21.096 112.145 20.904C112.507 20.7013 112.795 20.4027 113.009 20.008C113.222 19.6133 113.329 19.1333 113.329 18.568C113.329 17.7253 113.105 17.08 112.657 16.632C112.219 16.1733 111.681 15.944 111.041 15.944C110.401 15.944 109.862 16.1733 109.425 16.632C108.998 17.08 108.785 17.7253 108.785 18.568C108.785 19.4107 108.993 20.0613 109.409 20.52C109.835 20.968 110.369 21.192 111.009 21.192ZM120.668 23.144C119.943 23.144 119.292 23.016 118.716 22.76C118.14 22.4933 117.681 22.136 117.34 21.688C117.009 21.24 116.828 20.744 116.796 20.2H119.052C119.095 20.5413 119.26 20.824 119.548 21.048C119.847 21.272 120.215 21.384 120.652 21.384C121.079 21.384 121.409 21.2987 121.644 21.128C121.889 20.9573 122.012 20.7387 122.012 20.472C122.012 20.184 121.863 19.9707 121.564 19.832C121.276 19.6827 120.812 19.5227 120.172 19.352C119.511 19.192 118.967 19.0267 118.54 18.856C118.124 18.6853 117.761 18.424 117.452 18.072C117.153 17.72 117.004 17.2453 117.004 16.648C117.004 16.1573 117.143 15.7093 117.42 15.304C117.708 14.8987 118.113 14.5787 118.636 14.344C119.169 14.1093 119.793 13.992 120.508 13.992C121.564 13.992 122.407 14.2587 123.036 14.792C123.665 15.3147 124.012 16.024 124.076 16.92H121.932C121.9 16.568 121.751 16.2907 121.484 16.088C121.228 15.8747 120.881 15.768 120.444 15.768C120.039 15.768 119.724 15.8427 119.5 15.992C119.287 16.1413 119.18 16.3493 119.18 16.616C119.18 16.9147 119.329 17.144 119.628 17.304C119.927 17.4533 120.391 17.608 121.02 17.768C121.66 17.928 122.188 18.0933 122.604 18.264C123.02 18.4347 123.377 18.7013 123.676 19.064C123.985 19.416 124.145 19.8853 124.156 20.472C124.156 20.984 124.012 21.4427 123.724 21.848C123.447 22.2533 123.041 22.5733 122.508 22.808C121.985 23.032 121.372 23.144 120.668 23.144ZM129.263 17.4C129.263 16.3013 129.508 15.32 129.999 14.456C130.5 13.5813 131.178 12.904 132.031 12.424C132.895 11.9333 133.86 11.688 134.927 11.688C136.175 11.688 137.268 12.008 138.207 12.648C139.146 13.288 139.802 14.1733 140.175 15.304H137.599C137.343 14.7707 136.98 14.3707 136.511 14.104C136.052 13.8373 135.519 13.704 134.911 13.704C134.26 13.704 133.679 13.8587 133.167 14.168C132.666 14.4667 132.271 14.8933 131.983 15.448C131.706 16.0027 131.567 16.6533 131.567 17.4C131.567 18.136 131.706 18.7867 131.983 19.352C132.271 19.9067 132.666 20.3387 133.167 20.648C133.679 20.9467 134.26 21.096 134.911 21.096C135.519 21.096 136.052 20.9627 136.511 20.696C136.98 20.4187 137.343 20.0133 137.599 19.48H140.175C139.802 20.6213 139.146 21.512 138.207 22.152C137.279 22.7813 136.186 23.096 134.927 23.096C133.86 23.096 132.895 22.856 132.031 22.376C131.178 21.8853 130.5 21.208 129.999 20.344C129.508 19.48 129.263 18.4987 129.263 17.4ZM150.456 14.136V23H148.2V21.88C147.912 22.264 147.534 22.568 147.064 22.792C146.606 23.0053 146.104 23.112 145.56 23.112C144.867 23.112 144.254 22.968 143.72 22.68C143.187 22.3813 142.766 21.9493 142.456 21.384C142.158 20.808 142.008 20.1253 142.008 19.336V14.136H144.248V19.016C144.248 19.72 144.424 20.264 144.776 20.648C145.128 21.0213 145.608 21.208 146.216 21.208C146.835 21.208 147.32 21.0213 147.672 20.648C148.024 20.264 148.2 19.72 148.2 19.016V14.136H150.456ZM153.803 13.08C153.408 13.08 153.077 12.9573 152.811 12.712C152.555 12.456 152.427 12.1413 152.427 11.768C152.427 11.3947 152.555 11.0853 152.811 10.84C153.077 10.584 153.408 10.456 153.803 10.456C154.197 10.456 154.523 10.584 154.779 10.84C155.045 11.0853 155.179 11.3947 155.179 11.768C155.179 12.1413 155.045 12.456 154.779 12.712C154.523 12.9573 154.197 13.08 153.803 13.08ZM154.907 14.136V23H152.667V14.136H154.907ZM160.512 23.144C159.786 23.144 159.136 23.016 158.56 22.76C157.984 22.4933 157.525 22.136 157.184 21.688C156.853 21.24 156.672 20.744 156.64 20.2H158.896C158.938 20.5413 159.104 20.824 159.392 21.048C159.69 21.272 160.058 21.384 160.496 21.384C160.922 21.384 161.253 21.2987 161.488 21.128C161.733 20.9573 161.856 20.7387 161.856 20.472C161.856 20.184 161.706 19.9707 161.408 19.832C161.12 19.6827 160.656 19.5227 160.016 19.352C159.354 19.192 158.81 19.0267 158.384 18.856C157.968 18.6853 157.605 18.424 157.296 18.072C156.997 17.72 156.848 17.2453 156.848 16.648C156.848 16.1573 156.986 15.7093 157.264 15.304C157.552 14.8987 157.957 14.5787 158.48 14.344C159.013 14.1093 159.637 13.992 160.352 13.992C161.408 13.992 162.25 14.2587 162.88 14.792C163.509 15.3147 163.856 16.024 163.92 16.92H161.776C161.744 16.568 161.594 16.2907 161.328 16.088C161.072 15.8747 160.725 15.768 160.288 15.768C159.882 15.768 159.568 15.8427 159.344 15.992C159.13 16.1413 159.024 16.3493 159.024 16.616C159.024 16.9147 159.173 17.144 159.472 17.304C159.77 17.4533 160.234 17.608 160.864 17.768C161.504 17.928 162.032 18.0933 162.448 18.264C162.864 18.4347 163.221 18.7013 163.52 19.064C163.829 19.416 163.989 19.8853 164 20.472C164 20.984 163.856 21.4427 163.568 21.848C163.29 22.2533 162.885 22.5733 162.352 22.808C161.829 23.032 161.216 23.144 160.512 23.144ZM166.974 13.08C166.58 13.08 166.249 12.9573 165.982 12.712C165.726 12.456 165.598 12.1413 165.598 11.768C165.598 11.3947 165.726 11.0853 165.982 10.84C166.249 10.584 166.58 10.456 166.974 10.456C167.369 10.456 167.694 10.584 167.95 10.84C168.217 11.0853 168.35 11.3947 168.35 11.768C168.35 12.1413 168.217 12.456 167.95 12.712C167.694 12.9573 167.369 13.08 166.974 13.08ZM168.078 14.136V23H165.838V14.136H168.078ZM175.204 14.008C176.26 14.008 177.113 14.344 177.764 15.016C178.414 15.6773 178.74 16.6053 178.74 17.8V23H176.5V18.104C176.5 17.4 176.324 16.8613 175.972 16.488C175.62 16.104 175.14 15.912 174.532 15.912C173.913 15.912 173.422 16.104 173.06 16.488C172.708 16.8613 172.532 17.4 172.532 18.104V23H170.292V14.136H172.532V15.24C172.83 14.856 173.209 14.5573 173.668 14.344C174.137 14.12 174.649 14.008 175.204 14.008ZM189.11 18.376C189.11 18.696 189.088 18.984 189.046 19.24H182.566C182.619 19.88 182.843 20.3813 183.238 20.744C183.632 21.1067 184.118 21.288 184.694 21.288C185.526 21.288 186.118 20.9307 186.47 20.216H188.886C188.63 21.0693 188.139 21.7733 187.414 22.328C186.688 22.872 185.798 23.144 184.742 23.144C183.888 23.144 183.12 22.9573 182.438 22.584C181.766 22.2 181.238 21.6613 180.854 20.968C180.48 20.2747 180.294 19.4747 180.294 18.568C180.294 17.6507 180.48 16.8453 180.854 16.152C181.227 15.4587 181.75 14.9253 182.422 14.552C183.094 14.1787 183.867 13.992 184.742 13.992C185.584 13.992 186.336 14.1733 186.998 14.536C187.67 14.8987 188.187 15.416 188.55 16.088C188.923 16.7493 189.11 17.512 189.11 18.376ZM186.79 17.736C186.779 17.16 186.571 16.7013 186.166 16.36C185.76 16.008 185.264 15.832 184.678 15.832C184.123 15.832 183.654 16.0027 183.27 16.344C182.896 16.6747 182.667 17.1387 182.582 17.736H186.79Z" fill="white"/>
</svg>
